<?xml version="1.0" encoding="utf-8"?>
<!-- Generator: Adobe Illustrator 20.1.0, SVG Export Plug-In . SVG Version: 6.00 Build 0)  -->
<svg version="1.1" id="Layer_1" xmlns="http://www.w3.org/2000/svg" xmlns:xlink="http://www.w3.org/1999/xlink" x="0px" y="0px"
	 viewBox="0 0 200 165.5" style="enable-background:new 0 0 200 165.5;" xml:space="preserve">
<style type="text/css">
	.st0{fill:#676767;}
	.st1{fill:#FFFFFF;}
</style>
<g>
	<g>
		<g id="icn-trash">
			<path class="st0" d="M195.5,30.4c-0.2,0-0.5,0-0.7,0l-0.8,0l-95.7,0c-1.4,0-2.9,0-3.9-1.3c-1-1.3-0.6-2.7-0.2-4.2l0.3-1.2
				c0.8-2.8,1.2-4.1,1.2-4.1c1.2-4.4,4.9-5,7.9-5.5L104,14l16.7-2.1c0.2,0,0.4-0.1,0.6-0.1c0.1-0.1,0.1-0.3,0.2-0.5
				c0.5-1.1,0.9-2.1,1.3-3.1c1.9-4.6,3.4-8.2,7.6-8.2h32.3c4.2,0,5.7,3.7,7.7,8.3c0.4,0.9,0.8,1.9,1.3,3c0.1,0.2,0.2,0.3,0.2,0.5
				c0.2,0,0.4,0.1,0.7,0.1l17.5,2.2c2.7,0.4,6,0.9,7.2,5.2c0,0,0.5,1.6,1.3,4.4l0.3,1.2c0.4,1.5,0.9,2.9-0.1,4.3
				C198,30.3,196.8,30.4,195.5,30.4z M99.7,25.1h93.8c-0.7-2.7-1.2-4.2-1.2-4.3c-0.3-0.9-0.3-1.1-2.9-1.5l-0.9-0.1l-16.6-2.1
				c-3.1-0.5-3.8-1.1-5-3.7c-0.5-1.2-1-2.2-1.4-3.1c-1-2.5-2.1-5-2.8-5h-32.3c-0.7,0-1.7,2.5-2.7,5c-0.4,1-0.9,2-1.4,3.2
				c-1.2,2.6-1.9,3.1-4.8,3.7l-16.8,2.1c-3.3,0.5-3.5,0.7-3.8,1.8C100.8,21.1,100.5,22.4,99.7,25.1z"/>
			<path class="st0" d="M152.2,128.3c-4.4,0-7.9-0.5-9.5-1.7c-1.1-0.9-1.6-2.1-1.4-3.4c4.1-29-19.9-59.5-37.2-63.3
				c-1-0.2-2.8-1.1-3-4.2l-0.9-12.3c-0.2-1.9-0.3-4.1,1.1-5.7c1.5-1.6,3.9-1.7,6.6-1.7h77.4c2.9,0,5.2,0.1,6.6,1.7
				c1.5,1.6,1.3,3.8,1.1,5.7l-5.9,76.2c-0.3,2-2.2,3.1-3.8,3.7C178.4,125.5,162.8,128.3,152.2,128.3z M146.7,122.6
				c5.6,1.4,30.6-1.6,35.3-4.4l5.8-75.2c0-0.3,0.1-1.1,0.1-1.6c-0.4-0.1-1.2-0.1-2.6-0.1h-77.4c-1.4,0-2.2,0.1-2.6,0.1
				c0,0.5,0.1,1.3,0.1,1.6l0.9,12C125.5,60.1,150.4,91.4,146.7,122.6z"/>
		</g>
		<g>
			<line class="st1" x1="120.8" y1="48.7" x2="122.5" y2="65.1"/>
			<path class="st0" d="M122.5,67.8c-1.3,0-2.5-1-2.6-2.4l-1.7-16.4c-0.1-1.5,0.9-2.8,2.4-2.9c1.4-0.1,2.8,0.9,2.9,2.4l1.7,16.4
				c0.1,1.5-0.9,2.8-2.4,2.9C122.7,67.7,122.6,67.8,122.5,67.8z"/>
		</g>
		<g>
			<line class="st1" x1="172.6" y1="48.7" x2="165.1" y2="123"/>
			<path class="st0" d="M165.1,125.7c-0.1,0-0.2,0-0.3,0c-1.5-0.1-2.5-1.5-2.4-2.9l7.5-74.4c0.1-1.5,1.5-2.5,2.9-2.4
				c1.5,0.1,2.5,1.4,2.4,2.9l-7.5,74.4C167.7,124.7,166.5,125.7,165.1,125.7z"/>
		</g>
		<g>
			<line class="st1" x1="147.4" y1="48.7" x2="147.4" y2="123"/>
			<path class="st0" d="M147.4,125.7c-1.5,0-2.7-1.2-2.7-2.7V48.7c0-1.5,1.2-2.7,2.7-2.7c1.5,0,2.7,1.2,2.7,2.7V123
				C150,124.5,148.9,125.7,147.4,125.7z"/>
		</g>
	</g>
	<g>
		<path id="icn-dashboard_1_" class="st1" d="M67.3,162.8c-16.7,0-33.4,0-50.1,0c-0.6,0-1.1-0.1-1.7-0.2c-1.5-0.3-2.4-1.3-3.1-2.6
			c-1.5-2.6-3-5.2-4.1-7.9c-0.9-2.1-1.8-4.2-2.5-6.5c-0.7-2.3-1.2-4.6-1.9-6.9c-0.3-1.1-0.3-2.3-0.5-3.4c-0.2-1.6-0.3-3.2-0.5-4.7
			c-0.3-2.8-0.2-5.6-0.1-8.4c0-1.6,0.2-3.2,0.4-4.8c0.4-2.7,0.9-5.5,1.6-8.1c0.6-2.2,1.3-4.4,2.2-6.6c1-2.4,2-4.8,3.3-7.1
			c1.4-2.5,2.8-5,4.5-7.4c1.4-1.9,2.8-3.7,4.3-5.4c1.4-1.6,2.9-3.2,4.5-4.6c1.9-1.7,3.9-3.3,6-4.8c2-1.4,4-2.6,6.1-3.8
			c4.2-2.4,8.7-4.3,13.3-5.7c2.1-0.6,4.2-1.2,6.3-1.5c1.6-0.2,3.1-0.5,4.7-0.7c0.9-0.1,1.8-0.1,2.7-0.2c2.7-0.4,5.3-0.1,8-0.2
			c1.2,0.4,2.6,0.1,3.8,0.4c0.6,0.2,1.3,0.1,2,0.2c2.9,0.4,5.7,1,8.4,1.8c2,0.6,4,1.3,5.9,2c0.6,0.2,1.2,0.5,1.8,0.7
			c1.9,0.9,3.8,1.7,5.7,2.7c2.5,1.4,5,2.8,7.2,4.6c1.6,1.2,3.2,2.5,4.7,3.8c1.5,1.2,2.8,2.6,4.1,4c1.2,1.2,2.3,2.6,3.4,4
			c1.4,1.7,2.6,3.4,3.8,5.2c0.7,1.1,1.3,2.2,1.9,3.3c0.7,1.3,1.4,2.6,2,3.9c1.6,3.1,2.8,6.3,3.8,9.7c0.6,2.1,1.2,4.2,1.5,6.3
			c0.2,1.6,0.5,3.1,0.7,4.7c0.1,0.9,0.1,1.8,0.2,2.7c0.4,2.8,0.1,5.6,0.2,8.4c-0.3,1,0,2.2-0.4,3.2c-0.1,0.2,0,0.5,0,0.7
			c0,1-0.2,1.9-0.4,2.9c-0.1,0.5-0.3,1-0.3,1.5c0,1.3-0.5,2.5-0.8,3.7c-0.5,2.1-1.2,4.1-1.9,6.2c-1,2.9-2.2,5.6-3.7,8.3
			c-0.8,1.5-1.7,3-2.6,4.5c-0.9,1.5-2.3,2.2-4.1,2.2C100.9,162.8,84.1,162.8,67.3,162.8z M67.3,153.6c0.6,0,1.2,0.1,1.7,0
			c1.2-0.3,2.4-0.6,3.6-1.1c2.4-0.9,4.3-2.6,5.9-4.5c1.5-1.9,2.2-4.3,2.6-6.7c0.3-1.8,0-3.6-0.5-5.3c-0.9-2.9-2.5-5.3-5-7.1
			c-0.6-0.4-0.6-0.6-0.4-1.3c0.5-2,1-4,1.5-5.9c0.5-2,1.1-4,1.6-6c0.4-1.4,0.8-2.7,1.1-4.1c0.8-3.1,1.7-6.2,2.4-9.4
			c0.3-1.1,0.7-2.1,0.4-3.4c-0.3-1.4-1.1-2.3-2.2-3c-0.6-0.4-1.3-0.7-2-0.7c-1.8,0-4,0.9-4.6,3.2c-0.6,2.1-1.1,4.2-1.7,6.4
			c-0.6,2.3-1.3,4.7-1.8,7c-0.5,2.1-1.1,4.1-1.6,6.1c-0.7,2.5-1.3,5-2,7.5c-0.1,0.5-0.4,0.8-0.9,0.8c-0.3,0-0.5,0-0.8,0
			c-2,0.6-3.9,1.2-5.6,2.5c-1.6,1.3-3,2.8-4,4.6c-0.7,1.4-1.1,2.8-1.4,4.3c-0.3,1.3-0.3,2.5-0.1,3.7c0.2,1.2,0.6,2.4,1,3.6
			c0.9,2.5,2.6,4.4,4.6,6C61.5,152.8,64.3,153.6,67.3,153.6z M67.3,89c2.5-0.1,4.7-0.9,6.5-2.7c1.8-1.8,2.7-4,2.7-6.5
			c0-2.5-0.9-4.7-2.6-6.5c-1.8-1.8-4-2.7-6.5-2.7c-2.5,0-4.7,0.9-6.5,2.6c-1.8,1.8-2.7,4.1-2.7,6.6c0,2.5,0.9,4.7,2.7,6.5
			C62.6,88.1,64.8,88.8,67.3,89z M35,84.4c-2.4,0.1-4.6,0.9-6.4,2.6c-1.8,1.8-2.7,4-2.8,6.5c0,2.5,0.9,4.8,2.7,6.6
			c1.7,1.8,3.9,2.7,6.4,2.7c2.5,0,4.8-0.8,6.6-2.6c1.8-1.8,2.7-4,2.7-6.5c0-2.5-0.8-4.7-2.6-6.5C39.8,85.3,37.6,84.5,35,84.4z
			 M99.6,84.4c-2.5,0.1-4.7,0.9-6.5,2.7c-1.8,1.8-2.7,4-2.7,6.5c0,2.5,0.9,4.7,2.7,6.5c1.8,1.8,4,2.7,6.5,2.7c2.5,0,4.8-0.9,6.6-2.7
			c1.8-1.8,2.7-4,2.7-6.5c0-2.5-0.9-4.7-2.7-6.5C104.3,85.3,102.1,84.5,99.6,84.4z M11.9,125.9c0.1,2.5,0.9,4.7,2.7,6.5
			c1.8,1.8,4,2.7,6.5,2.7c2.5,0,4.7-0.9,6.5-2.7c1.8-1.8,2.7-4.1,2.7-6.6c0-2.5-0.9-4.7-2.7-6.5c-1.8-1.8-4-2.7-6.5-2.7
			c-2.5,0-4.7,0.9-6.5,2.7C12.8,121.2,12.1,123.4,11.9,125.9z M122.7,125.9c-0.1-2.5-0.9-4.7-2.7-6.5c-1.8-1.8-4-2.7-6.5-2.7
			c-2.5,0-4.7,0.9-6.5,2.6c-1.8,1.8-2.7,4-2.7,6.5c0,2.5,0.9,4.8,2.7,6.6c1.8,1.8,4,2.7,6.5,2.7c2.5,0,4.7-0.9,6.5-2.7
			C121.7,130.6,122.5,128.4,122.7,125.9z"/>
		<path class="st0" d="M117.7,165.5C117.7,165.5,117.7,165.5,117.7,165.5l-100.5,0c-0.7,0-1.4-0.1-2.2-0.2c-3-0.6-4.5-3-4.9-3.8
			c-1.7-2.9-3.1-5.5-4.3-8.2c-1-2.2-1.9-4.4-2.6-6.7c-0.5-1.5-0.9-3-1.2-4.5c-0.2-0.8-0.4-1.6-0.6-2.4c-0.3-0.9-0.4-1.8-0.4-2.6
			c0-0.4-0.1-0.7-0.1-1.1c-0.2-1-0.2-2-0.3-3c-0.1-0.6-0.1-1.2-0.2-1.8c-0.3-2.6-0.2-5.2-0.2-7.7l0-1c0-1.7,0.2-3.4,0.5-5.2
			c0.4-2.6,0.9-5.5,1.7-8.5c0.8-2.8,1.5-4.9,2.3-6.8c1.2-2.9,2.2-5.3,3.4-7.4c1.7-3.2,3.2-5.5,4.7-7.7c1.3-1.8,2.8-3.6,4.4-5.6
			c1.5-1.7,3.1-3.4,4.8-4.9c2.1-1.9,4.2-3.5,6.3-5c1.9-1.3,3.9-2.6,6.3-4c4.2-2.4,8.7-4.3,13.8-5.9c2.5-0.8,4.6-1.3,6.7-1.6l1.4-0.2
			c1.1-0.2,2.2-0.4,3.4-0.5c0.5-0.1,1-0.1,1.5-0.1c0.4,0,0.8,0,1.2-0.1c1.9-0.3,3.8-0.3,5.6-0.2c0.9,0,1.8,0,2.7,0l0.4,0l0.4,0.1
			c0.3,0.1,0.7,0.1,1.3,0.1c0.7,0,1.6,0,2.5,0.3c0.2,0.1,0.5,0.1,0.8,0.1c0.3,0,0.6,0,0.9,0.1c2.7,0.3,5.5,0.9,8.8,1.9
			c1.9,0.5,3.8,1.2,5.6,1.8l0.5,0.2c0.7,0.2,1.4,0.5,2,0.8l1.6,0.7c1.4,0.6,2.9,1.3,4.3,2.1c2.5,1.4,5.1,2.9,7.5,4.8
			c1.6,1.2,3.2,2.5,4.8,3.8c1.5,1.2,2.8,2.6,4.1,3.9l0.2,0.2c1.1,1.1,2,2.3,3,3.4l0.6,0.7c1.4,1.7,2.6,3.5,3.9,5.5
			c0.7,1.1,1.4,2.3,2,3.5c0.7,1.3,1.4,2.6,2.1,4c1.6,3.2,2.9,6.6,4,10.1c0.6,1.9,1.2,4.2,1.6,6.6l0.1,0.3c0.2,1.5,0.5,2.9,0.7,4.4
			c0.1,0.5,0.1,1,0.1,1.5c0,0.4,0,0.8,0.1,1.1c0.3,2,0.3,4,0.2,5.8c0,0.9,0,1.9,0,2.8l0,0.5l-0.1,0.4c0,0.1-0.1,0.5-0.1,0.8
			c0,0.6,0,1.3-0.3,2.1l0,0.2c0,1.4-0.3,2.6-0.5,3.6c-0.1,0.3-0.2,0.7-0.2,0.9c0,1.3-0.3,2.5-0.6,3.5c-0.1,0.3-0.2,0.6-0.2,0.8
			c-0.5,2.2-1.3,4.2-1.9,6.3c-1,3-2.3,5.8-3.9,8.8c-0.8,1.4-1.6,2.8-2.5,4.2l-0.2,0.3C122.7,164.3,120.5,165.5,117.7,165.5z
			 M81.7,160.2l36,0c0,0,0,0,0,0c1,0,1.5-0.3,1.8-0.9l0.2-0.3c0.8-1.3,1.6-2.7,2.3-4c1.5-2.7,2.6-5.3,3.5-7.9c0.7-2.1,1.4-4,1.9-6
			c0.1-0.3,0.2-0.7,0.3-1c0.2-0.8,0.4-1.5,0.4-2.1c0-0.9,0.2-1.6,0.3-2.2c0.2-1,0.3-1.6,0.3-2.2c0-0.3-0.1-1,0.2-1.7
			c0-0.1,0-0.5,0.1-0.8c0-0.5,0-1.1,0.2-1.8c0-0.9,0-1.8,0-2.7c0-1.7,0.1-3.4-0.2-5c-0.1-0.5-0.1-1.1-0.1-1.7c0-0.4,0-0.7-0.1-1.1
			c-0.2-1.4-0.4-2.9-0.6-4.3l-0.1-0.3c-0.3-2.1-0.9-4.2-1.4-6c-1-3.2-2.2-6.4-3.6-9.2c-0.6-1.3-1.3-2.5-2-3.8
			c-0.6-1.1-1.2-2.1-1.8-3.1c-1.2-1.8-2.4-3.5-3.6-5l-0.6-0.8c-0.9-1.1-1.7-2.1-2.6-3l-0.2-0.2c-1.3-1.3-2.4-2.5-3.7-3.6
			c-1.5-1.3-3-2.5-4.6-3.7c-2.2-1.7-4.6-3.1-6.9-4.4c-1.2-0.7-2.5-1.3-3.9-1.9l-1.6-0.7c-0.5-0.2-1-0.5-1.5-0.6L89.4,68
			c-1.7-0.6-3.5-1.2-5.3-1.7c-3-0.9-5.6-1.4-8-1.7c-0.2,0-0.4,0-0.6,0c-0.5,0-1.1-0.1-1.8-0.3c-0.3-0.1-0.7-0.1-1.3-0.1
			c-0.6,0-1.4,0-2.2-0.2c-0.9,0-1.8,0-2.7,0c-1.6,0-3.2-0.1-4.7,0.2c-0.6,0.1-1.1,0.1-1.7,0.1c-0.4,0-0.7,0-1.1,0.1
			c-1.1,0.1-2.1,0.3-3.2,0.5L55.7,65c-1.8,0.3-3.7,0.7-5.9,1.4c-4.7,1.5-8.9,3.2-12.7,5.4c-2.2,1.3-4.2,2.5-5.9,3.7
			c-1.9,1.3-3.8,2.8-5.8,4.6c-1.5,1.3-2.9,2.8-4.2,4.3c-1.6,1.8-2.9,3.6-4.2,5.3c-1.4,1.9-2.8,4.1-4.4,7.1c-1,1.9-2,4.1-3.1,6.9
			c-0.7,1.8-1.3,3.7-2.1,6.3c-0.8,2.6-1.2,5.4-1.5,7.8c-0.2,1.6-0.4,3.1-0.4,4.5l0,1c-0.1,2.4-0.1,4.7,0.1,6.9
			c0.1,0.7,0.1,1.3,0.2,2c0.1,0.9,0.1,1.8,0.3,2.6c0.1,0.5,0.1,0.9,0.2,1.4c0.1,0.7,0.1,1.3,0.3,1.8c0.2,0.8,0.4,1.7,0.7,2.5
			c0.4,1.4,0.7,2.9,1.2,4.3c0.6,2.1,1.5,4.1,2.4,6.2c1.1,2.5,2.4,4.8,4,7.6c0.6,1,1,1.2,1.3,1.3c0.4,0.1,0.8,0.1,1.2,0.1L81.7,160.2
			z M134,133.7C134,133.7,134,133.7,134,133.7C134,133.7,134,133.7,134,133.7z M68.3,156.3c-0.2,0-0.5,0-0.6,0l-0.4,0
			c-3.7,0-7-1.1-9.7-3.1c-2.6-2-4.4-4.4-5.5-7.1c-0.4-1.1-0.9-2.6-1.2-4.2c-0.2-1.5-0.2-3.1,0.1-4.6c0.4-2.1,0.9-3.6,1.7-5.1
			c1.1-2.1,2.6-3.8,4.7-5.4c2-1.6,4.3-2.3,6.5-3c0.1,0,0.1,0,0.2,0l1.7-6.5c0.2-0.8,0.4-1.6,0.7-2.4c0.3-1.2,0.7-2.4,1-3.7
			c0.3-1.3,0.7-2.6,1-3.9c0.3-1,0.6-2.1,0.8-3.1c0.5-2.1,1.1-4.3,1.7-6.4c1-3.7,4.4-5.2,7.2-5.2c1.2,0,2.3,0.4,3.4,1.1
			c1.7,1.1,2.8,2.6,3.3,4.6c0.4,1.7,0,3.1-0.2,4.1l-0.1,0.5c-0.6,2.5-1.3,5-2,7.6l-0.5,1.9c-0.2,0.8-0.4,1.5-0.6,2.3l-0.5,1.8
			c-0.5,2-1.1,4-1.6,6l-1.3,5c2.4,2,4.1,4.6,5.1,7.8c0.7,2.2,0.9,4.4,0.6,6.5c-0.5,3.3-1.5,6-3.1,8c-2.1,2.6-4.4,4.4-7,5.4
			c-1.3,0.5-2.6,0.8-3.8,1.1C69.2,156.2,68.7,156.3,68.3,156.3z M67.3,150.9c0.2,0,0.5,0,0.7,0c0.2,0,0.3,0,0.5,0
			c1.2-0.3,2.3-0.6,3.3-1c1.8-0.7,3.3-1.8,4.7-3.7c1-1.3,1.7-3,2-5.5c0.2-1.3,0.1-2.7-0.4-4.1c-0.8-2.5-2.1-4.4-4-5.7
			c-1.9-1.3-1.8-2.9-1.4-4.1l1.5-6c0.5-2,1.1-4,1.6-6.1l0.5-1.9c0.2-0.7,0.4-1.5,0.6-2.2l0.5-1.9c0.7-2.5,1.3-5,1.9-7.4l0.2-0.7
			c0.2-0.7,0.3-1.1,0.2-1.4c-0.2-0.7-0.5-1-1.1-1.5c-0.3-0.2-0.4-0.2-0.6-0.2c-0.3,0-1.6,0.1-1.9,1.3c-0.6,2.1-1.1,4.2-1.7,6.3
			c-0.3,1.1-0.6,2.1-0.8,3.2c-0.3,1.3-0.7,2.5-1,3.8c-0.3,1.3-0.7,2.5-1,3.8c-0.2,0.8-0.4,1.6-0.6,2.4l-2,7.6
			c-0.4,1.6-1.6,2.6-3.2,2.8c-0.2,0-0.4,0-0.5,0c-1.7,0.5-3.2,1-4.5,2c-1.5,1.1-2.5,2.4-3.3,3.8c-0.5,0.9-0.9,2.1-1.2,3.6
			c-0.2,1-0.2,1.9-0.1,2.9c0.2,1.1,0.5,2.2,0.9,3.1c0.7,1.9,1.9,3.4,3.7,4.8C62.6,150.2,64.7,150.9,67.3,150.9z M63.8,124.6
			C63.8,124.6,63.8,124.6,63.8,124.6L63.8,124.6z M113.4,137.8c-3.2,0-6.1-1.2-8.3-3.4c-2.3-2.3-3.5-5.2-3.5-8.5
			c0-3.2,1.2-6.1,3.5-8.4c2.3-2.2,5.3-3.4,8.4-3.4c3.2,0,6.1,1.2,8.4,3.5c2.1,2.1,3.3,4.9,3.5,8.3l0,0.1l0,0.1
			c-0.2,3.3-1.4,6.1-3.5,8.2C119.6,136.5,116.7,137.7,113.4,137.8C113.5,137.8,113.5,137.8,113.4,137.8z M113.5,119.4
			c-1.8,0-3.3,0.6-4.6,1.9c-1.3,1.3-1.9,2.8-1.9,4.6c0,1.8,0.6,3.4,1.9,4.7c1.3,1.3,2.8,1.9,4.6,1.9c0,0,0,0,0,0
			c1.8,0,3.4-0.6,4.6-1.9c1.2-1.2,1.8-2.7,1.9-4.6c-0.1-2-0.7-3.5-1.9-4.6C116.9,120,115.3,119.4,113.5,119.4
			C113.5,119.4,113.5,119.4,113.5,119.4z M21.2,137.8C21.1,137.8,21.1,137.8,21.2,137.8c-3.3,0-6.1-1.2-8.4-3.5
			c-2.1-2.1-3.3-4.9-3.5-8.2l0-0.1l0-0.1c0.2-3.3,1.4-6.1,3.5-8.2c2.3-2.3,5.1-3.5,8.4-3.5c0,0,0,0,0,0c3.2,0,6.1,1.2,8.4,3.4
			c2.3,2.2,3.5,5.1,3.5,8.4c0,3.3-1.2,6.2-3.5,8.5C27.2,136.6,24.4,137.8,21.2,137.8z M14.6,125.9c0.1,1.9,0.8,3.4,1.9,4.6
			c1.3,1.3,2.8,1.9,4.6,1.9c0,0,0,0,0,0c1.8,0,3.3-0.6,4.6-1.9c1.3-1.3,1.9-2.9,1.9-4.7c0-1.8-0.7-3.4-1.9-4.6
			c-1.3-1.3-2.8-1.9-4.6-1.9c0,0,0,0,0,0c-1.8,0-3.4,0.6-4.6,1.9C15.3,122.5,14.7,123.9,14.6,125.9z M99.6,105.4
			C99.6,105.4,99.6,105.4,99.6,105.4c-3.3,0-6.2-1.2-8.4-3.5c-2.2-2.3-3.4-5.2-3.4-8.4c0-3.2,1.2-6.1,3.5-8.4
			c2.1-2.1,4.9-3.3,8.2-3.5l0.1,0l0.1,0c3.3,0.2,6.1,1.3,8.3,3.5c2.3,2.2,3.5,5.1,3.5,8.4c0,3.2-1.2,6.1-3.4,8.4
			C105.8,104.2,102.9,105.4,99.6,105.4z M99.6,87c-2,0.1-3.4,0.8-4.6,1.9c-1.3,1.3-1.9,2.8-1.9,4.6c0,1.8,0.6,3.4,1.9,4.6
			c1.3,1.3,2.8,1.9,4.6,1.9c0,0,0,0,0,0c1.8,0,3.4-0.7,4.6-1.9c1.3-1.3,1.9-2.8,1.9-4.6c0-1.8-0.6-3.3-1.9-4.6
			C103.1,87.8,101.6,87.2,99.6,87z M35,105.4c-0.1,0-0.1,0-0.2,0c-3.2,0-6-1.3-8.2-3.5c-2.3-2.3-3.5-5.3-3.4-8.5
			c0-3.2,1.3-6.1,3.6-8.3c2.2-2.1,4.9-3.2,8.1-3.4l0.1,0l0.1,0c3.5,0.2,6.2,1.4,8.4,3.6c2.2,2.3,3.4,5.2,3.4,8.4
			c0,3.2-1.2,6.1-3.5,8.3C41.1,104.3,38.2,105.4,35,105.4z M35,87c-1.9,0.1-3.4,0.7-4.5,1.9c-1.3,1.3-1.9,2.8-2,4.6
			c0,1.8,0.6,3.4,1.9,4.7c1.2,1.2,2.8,1.9,4.5,1.9c1.8,0,3.4-0.6,4.7-1.9c1.3-1.3,1.9-2.8,1.9-4.6c0-1.8-0.6-3.4-1.9-4.6
			C38.5,87.8,37,87.2,35,87z M67.3,91.6l-0.1,0c-3.3-0.2-6.1-1.4-8.2-3.5c-2.3-2.3-3.5-5.1-3.5-8.4c0-3.3,1.2-6.2,3.5-8.5
			c2.3-2.2,5.1-3.4,8.4-3.4c3.2,0,6.1,1.2,8.4,3.5c2.2,2.3,3.4,5.2,3.4,8.4c0,3.2-1.2,6.1-3.5,8.4c-2.1,2.1-4.9,3.3-8.2,3.5
			L67.3,91.6z M67.3,73.2c-1.8,0-3.3,0.6-4.6,1.9c-1.3,1.3-1.9,2.8-1.9,4.7c0,1.8,0.7,3.4,1.9,4.6c1.2,1.2,2.7,1.8,4.6,1.9
			c1.9-0.1,3.5-0.8,4.6-1.9c1.3-1.3,1.9-2.8,1.9-4.6c0-1.8-0.6-3.4-1.9-4.6C70.7,73.9,69.2,73.2,67.3,73.2
			C67.3,73.2,67.3,73.2,67.3,73.2z"/>
	</g>
</g>
</svg>
