<?xml version="1.0" encoding="utf-8"?>
<!-- Generator: Adobe Illustrator 20.1.0, SVG Export Plug-In . SVG Version: 6.00 Build 0)  -->
<svg version="1.1" id="Layer_1" xmlns="http://www.w3.org/2000/svg" xmlns:xlink="http://www.w3.org/1999/xlink" x="0px" y="0px"
	 viewBox="0 0 200 200" style="enable-background:new 0 0 200 200;" xml:space="preserve">
<style type="text/css">
	.st0{fill:#FFFFFF;}
</style>
<title>icn-google</title>
<g id="Layer_2">
	<g id="Layer_1-2">
		<path id="sm-google-round" class="st0" d="M100,0C44.8,0,0,44.8,0,100s44.8,100,100,100s100-44.8,100-100S155.2,0,100,0z
			 M113.8,153.8c-17.9,4.3-36.7-0.8-50-13.5C52.7,130.6,46.3,116.7,46,102c-1-16.6,5.9-32.7,18.6-43.5C76.9,47.4,93.7,42.6,110,45.4
			c10.6,1.5,20.3,6.4,28,13.8l-14.5,14c-3.4-2.2-6.9-4.2-10.5-5.9C97.1,61.4,79.3,68,71.1,82.9c-9.2,16.4-3.9,37.1,12,47.1
			c15.3,9.8,35.7,5.3,45.4-10c0.5-0.8,1-1.7,1.5-2.5c0.9-2.1,1.7-4.3,2.3-6.5h-31.1V92.3H153c6.3,27.6-11,55.1-38.7,61.4
			C114.2,153.7,114,153.8,113.8,153.8z"/>
	</g>
</g>
</svg>
