<?xml version="1.0" encoding="utf-8"?>
<!-- Generator: Adobe Illustrator 20.1.0, SVG Export Plug-In . SVG Version: 6.00 Build 0)  -->
<svg version="1.1" id="Layer_1" xmlns="http://www.w3.org/2000/svg" xmlns:xlink="http://www.w3.org/1999/xlink" x="0px" y="0px"
	 viewBox="0 0 200 199.5" style="enable-background:new 0 0 200 199.5;" xml:space="preserve">
<style type="text/css">
	.st0{fill:#676767;}
</style>
<g id="icn-tick">
	<g>
		<path class="st0" d="M99.7,199.5c-55,0-99.7-44.7-99.7-99.7S44.7,0,99.7,0c55,0,99.8,44.7,99.8,99.8S154.8,199.5,99.7,199.5z
			 M99.7,6.5C48.3,6.5,6.5,48.3,6.5,99.8c0,51.4,41.8,93.2,93.2,93.2S193,151.2,193,99.8C193,48.3,151.2,6.5,99.7,6.5z"/>
		<g>
			<path class="st0" d="M85.1,157.9c-2.2,0-4.3-0.5-6.2-1.5c-2-1-3.8-2.5-5.3-4.2l-29.3-34.7c-2.4-3.1-3.2-6.7-2.4-10.4
				c0.8-3.7,2.9-6.6,6.2-8.8c3.4-2.1,7.1-2.9,11-2.2c3.9,0.7,7.1,2.7,9.4,5.8l15.7,19.8l47.4-73.6c2.2-3.3,5-5.4,8.5-6.3
				c3.5-0.9,7-0.4,10.5,1.4c3.5,1.9,5.8,4.7,6.8,8.4c1,3.7,0.5,7.3-1.6,10.5l-57.9,88.9c-1.1,2-2.9,3.6-5.2,4.8
				c-2.1,1.1-4.4,1.7-6.8,1.9C85.7,157.9,85.4,157.9,85.1,157.9z M49.4,113.5L78.5,148c1,1.1,2,2,3.3,2.7c1.1,0.6,2.3,0.8,3.8,0.7
				c1.5-0.1,2.8-0.5,4.1-1.2c1.2-0.6,2-1.4,2.6-2.4l58-89c1.1-1.6,1.3-3.3,0.8-5.2c-0.5-2-1.7-3.3-3.6-4.4c-2-1.1-4-1.3-5.9-0.9
				c-1.9,0.5-3.4,1.6-4.6,3.5L84.7,133L63.2,106c-1.4-1.9-3.1-2.9-5.3-3.3c-2.3-0.4-4.3,0-6.3,1.2c-1.8,1.2-2.9,2.7-3.3,4.6
				C47.8,110.3,48.2,111.9,49.4,113.5z"/>
		</g>
	</g>
</g>
</svg>
