<?xml version="1.0" encoding="utf-8"?>
<!-- Generator: Adobe Illustrator 20.1.0, SVG Export Plug-In . SVG Version: 6.00 Build 0)  -->
<svg version="1.1" id="Layer_1" xmlns="http://www.w3.org/2000/svg" xmlns:xlink="http://www.w3.org/1999/xlink" x="0px" y="0px"
	 viewBox="0 0 200 157.2" style="enable-background:new 0 0 200 157.2;" xml:space="preserve">
<style type="text/css">
	.st0{fill:#1A5151;}
</style>
<g>
	<g>
		<path class="st0" d="M41.9,157.2c-1.1,0-2.1-0.4-3-1.1c-1.6-1.3-2.1-3.4-1.4-5.3c2.1-5.6,3-11.9,3-19.9c0-3.7-2-7.1-5.3-9.1
			c-22.2-13.2-35-32.2-35-52.2c0-38,44.8-68.9,99.9-68.9c55.1,0,99.9,30.9,99.9,68.9c0,38-44.8,68.8-99.9,68.8
			c-4.5,0-8.9-0.2-13-0.6l-1.1-0.1c0,0-0.1,0-0.1,0c-16.6,0-24.9,6.5-33,12.7c-2.6,2-5.2,4.1-8.5,6C43.6,157,42.8,157.2,41.9,157.2z
			 M100.1,7.6c-51.3,0-93,27.8-93,62c0,17.5,11.5,34.3,31.6,46.2c5.3,3.2,8.7,8.9,8.7,15c0,6.3-0.5,11.7-1.7,16.5c1-0.8,2-1.5,3-2.3
			c8.1-6.3,18.3-14.1,37.3-14.1c0,0,0.1,0,0.1,0l1.4,0.1c4,0.4,8.2,0.6,12.5,0.6c51.3,0,93.1-27.8,93.1-62
			C193.1,35.4,151.4,7.6,100.1,7.6z"/>
	</g>
	<path class="st0" d="M56.1,88.3c-9.6,0-17.4-7.8-17.4-17.4s7.8-17.4,17.4-17.4s17.4,7.8,17.4,17.4S65.7,88.3,56.1,88.3z M56.1,60.3
		c-5.8,0-10.6,4.7-10.6,10.6s4.7,10.6,10.6,10.6s10.6-4.7,10.6-10.6S61.9,60.3,56.1,60.3z"/>
	<path class="st0" d="M100.5,88.3c-9.6,0-17.4-7.8-17.4-17.4s7.8-17.4,17.4-17.4c9.6,0,17.4,7.8,17.4,17.4S110.1,88.3,100.5,88.3z
		 M100.5,60.3c-5.8,0-10.6,4.7-10.6,10.6s4.7,10.6,10.6,10.6c5.8,0,10.6-4.7,10.6-10.6S106.3,60.3,100.5,60.3z"/>
	<path class="st0" d="M146.8,88.3c-9.6,0-17.4-7.8-17.4-17.4s7.8-17.4,17.4-17.4s17.4,7.8,17.4,17.4S156.4,88.3,146.8,88.3z
		 M146.8,60.3c-5.8,0-10.6,4.7-10.6,10.6s4.7,10.6,10.6,10.6s10.6-4.7,10.6-10.6S152.6,60.3,146.8,60.3z"/>
</g>
</svg>
