<?xml version="1.0" encoding="utf-8"?>
<!-- Generator: Adobe Illustrator 20.1.0, SVG Export Plug-In . SVG Version: 6.00 Build 0)  -->
<svg version="1.1" id="Layer_1" xmlns="http://www.w3.org/2000/svg" xmlns:xlink="http://www.w3.org/1999/xlink" x="0px" y="0px"
	 viewBox="0 0 200 245.5" style="enable-background:new 0 0 200 245.5;" xml:space="preserve">
<style type="text/css">
	.st0{fill:#122E2E;}
</style>
<g>
	<g>
		<path class="st0" d="M149.6,58.9H6.7c-3.7,0-6.7-3-6.7-6.7V28.3c0-3.7,3-6.7,6.7-6.7h37.1c0.3,0,0.5-0.2,0.5-0.5V7.3
			c0-3.7,3-6.7,6.7-6.7h54.4c3.7,0,6.7,3,6.7,6.7v13.2c0,0.3,0.2,0.5,0.5,0.5h37.1c3.7,0,6.7,3,6.7,6.7v24.5
			C156.3,55.9,153.3,58.9,149.6,58.9z M6.7,27.8c-0.3,0-0.5,0.2-0.5,0.5v23.9c0,0.3,0.2,0.5,0.5,0.5h142.9c0.3,0,0.5-0.2,0.5-0.5
			V27.7c0-0.3-0.2-0.5-0.5-0.5h-37.1c-3.7,0-6.7-3-6.7-6.7V7.3c0-0.3-0.2-0.5-0.5-0.5H51c-0.3,0-0.5,0.2-0.5,0.5v13.8
			c0,3.7-3,6.7-6.7,6.7H6.7z M91.8,26.2H64.5c-1.7,0-3.1-1.4-3.1-3.1l0-2.1c0-0.8,0.3-1.6,0.9-2.2c0.6-0.6,1.4-0.9,2.2-0.9h27.3
			c0.8,0,1.6,0.3,2.2,0.9c0.6,0.6,0.9,1.4,0.9,2.2l0,2.1C94.9,24.8,93.5,26.2,91.8,26.2z"/>
		<path class="st0" d="M142.9,245.5c-0.2,0-0.4,0-0.5,0c-31.1-0.3-56.2-25.8-56-56.9c0.2-31,25.6-56.2,56.5-56.2c0,0,0,0,0,0
			c31,0,56.5,25.2,56.7,56.2c0.1,15-5.9,29.2-16.8,40.1C172.1,239.4,157.6,245.5,142.9,245.5z M142.9,138.6
			c-27.5,0-50.1,22.4-50.3,50c-0.2,27.6,22.2,50.3,49.9,50.6c13.1,0,26.3-5.3,35.9-14.9c9.8-9.7,15.1-22.4,15-35.7
			C193.2,161.1,170.5,138.6,142.9,138.6L142.9,138.6C142.9,138.6,142.9,138.6,142.9,138.6z"/>
		<path class="st0" d="M126.2,220.9c-1.8,0-3.6-0.8-4.9-2.1l-7.8-8.2c-1.3-1.3-1.9-3.1-1.8-5c0.1-1.8,0.9-3.6,2.3-4.8l14.1-12.1
			c0.1-0.1,0.2-0.3,0.2-0.4c0-0.1,0-0.3-0.2-0.4l-14-11.1c-1.5-1.2-2.5-3-2.5-5c-0.1-2,0.7-3.9,2.2-5.2l7.8-7.2
			c1.4-1.3,3.2-1.9,5.1-1.8c1.9,0.1,3.6,1.1,4.7,2.5l11.1,14.1c0.1,0.2,0.3,0.2,0.4,0.2l0,0c0.1,0,0.3,0,0.4-0.2l11.3-14.5
			c1.2-1.5,3-2.5,4.9-2.6c1.9-0.1,3.8,0.6,5.2,1.9l8.3,8.2c1.4,1.4,2.1,3.3,2,5.3c-0.2,2-1.2,3.8-2.8,4.9L157.4,188
			c-0.2,0.1-0.2,0.3-0.2,0.4c0,0.1,0,0.3,0.2,0.4v0l14.7,11.9c1.5,1.2,2.4,3,2.5,4.9c0.1,1.9-0.7,3.8-2.1,5.1l-7.9,7.6
			c-1.3,1.3-3.2,2-5,1.9c-1.8-0.1-3.6-1-4.8-2.4l-11.6-13.8c-0.1-0.2-0.3-0.1-0.4-0.2c-0.2,0-0.3,0.1-0.4,0.2l-10.9,14.2
			c-1.2,1.6-3,2.5-5,2.6C126.4,220.9,126.3,220.9,126.2,220.9z M126.2,163.9c-0.1,0-0.2,0-0.3,0.1l-7.9,7.2
			c-0.1,0.1-0.2,0.3-0.2,0.4c0,0.2,0.1,0.3,0.2,0.4l14,11.1c1.6,1.2,2.5,3.1,2.5,5.1c0,2-0.8,3.9-2.3,5.2l-14.1,12.1
			c-0.1,0.1-0.2,0.2-0.2,0.3c0,0.1,0,0.2,0.1,0.4l7.8,8.2c0.1,0.1,0.3,0.2,0.4,0.2c0.1,0,0.3-0.1,0.4-0.2l10.9-14.2
			c1.2-1.6,3.1-2.6,5.2-2.6c2.2-0.2,4,0.8,5.3,2.4l11.6,13.8c0.1,0.1,0.3,0.2,0.4,0.2c0.1,0,0.2,0,0.4-0.1l7.9-7.6
			c0.1-0.1,0.2-0.3,0.2-0.4c0-0.1,0-0.2-0.2-0.4l-14.6-11.9c-1.6-1.3-2.5-3.3-2.5-5.4c0.1-2.1,1.1-4,2.8-5.3l14.6-10.4
			c0.1-0.1,0.2-0.2,0.2-0.4c0-0.1,0-0.3-0.1-0.4l-8.3-8.2c-0.1-0.1-0.3-0.2-0.4-0.1c-0.1,0-0.2,0-0.4,0.2l-11.3,14.5
			c-1.3,1.6-3.2,2.6-5.3,2.6c0,0,0,0,0,0c-2.1,0-4-0.9-5.3-2.6l-11.1-14.1C126.5,164,126.4,163.9,126.2,163.9
			C126.2,163.9,126.2,163.9,126.2,163.9z"/>
		<path class="st0" d="M41.4,231.8H17.7c-3.7,0-6.7-3-6.7-6.7V76.9c0-3.7,3-6.7,6.7-6.7h23.7c3.7,0,6.7,3,6.7,6.7V225
			C48.1,228.7,45.1,231.8,41.4,231.8z M17.7,76.4c-0.3,0-0.5,0.2-0.5,0.5V225c0,0.3,0.2,0.5,0.5,0.5h23.7c0.3,0,0.5-0.2,0.5-0.5
			V76.9c0-0.3-0.2-0.5-0.5-0.5H17.7z"/>
		<path class="st0" d="M84.4,231.4H66.5c-3.7,0-6.7-3-6.7-6.7V76.6c0-3.7,3-6.7,6.7-6.7h24c3.7,0,6.7,3,6.7,6.7l0,10
			c0,16.6,0,33.8-0.1,50.6c0,2.8-1.9,5.2-3.5,7l-0.3,0.4C73,170,70.7,196,86.5,224.2c0.4,0.7,1.1,2,1,4.2
			C87.5,230.1,86.1,231.4,84.4,231.4z M66.5,76.1c-0.3,0-0.5,0.2-0.5,0.5v148.1c0,0.3,0.2,0.5,0.5,0.5H80
			c-15.7-29.6-12.8-57.9,8.5-84.4l0.3-0.4c0.7-0.8,2.1-2.5,2.1-3.2C91,120.4,91,103.3,91,86.7l0-10c0-0.3-0.2-0.5-0.5-0.5H66.5z"/>
		<path class="st0" d="M114.6,127.6c-1.5,0-2.9-0.5-4.1-1.4c-1.6-1.3-2.6-3.2-2.6-5.3V76.8c0-3.7,3-6.7,6.7-6.7h23.9
			c3.7,0,6.7,3,6.7,6.7V115c0,3.1-2.1,5.8-5.1,6.5l-23.9,5.9C115.7,127.5,115.2,127.6,114.6,127.6z M114.7,76.3
			c-0.3,0-0.5,0.2-0.5,0.5v44.1c0,0.2,0.1,0.3,0.2,0.4c0.1,0.1,0.3,0.1,0.4,0.1l23.9-5.9c0.2-0.1,0.4-0.2,0.4-0.5V76.8
			c0-0.3-0.2-0.5-0.5-0.5H114.7z"/>
	</g>
</g>
</svg>
