<?xml version="1.0" encoding="utf-8"?>
<!-- Generator: Adobe Illustrator 20.1.0, SVG Export Plug-In . SVG Version: 6.00 Build 0)  -->
<svg version="1.1" id="Layer_1" xmlns="http://www.w3.org/2000/svg" xmlns:xlink="http://www.w3.org/1999/xlink" x="0px" y="0px"
	 viewBox="0 0 200 106.9" style="enable-background:new 0 0 200 106.9;" xml:space="preserve">
<style type="text/css">
	.st0{fill:#2AA3A3;}
</style>
<g>
	<g>
		<path class="st0" d="M193,106.9H7c-3.9,0-7-3.2-7-7V7c0-3.9,3.2-7,7-7H193c3.9,0,7,3.2,7,7v92.8C200,103.7,196.8,106.9,193,106.9z
			 M7,4.7C5.7,4.7,4.7,5.7,4.7,7v92.8c0,1.3,1.1,2.3,2.3,2.3H193c1.3,0,2.3-1.1,2.3-2.3V7c0-1.3-1.1-2.3-2.3-2.3H7z"/>
		<path class="st0" d="M100,55.2c-1.1,0-2.2-0.3-3.3-0.8L3.1,5.4c-1.1-0.6-1.6-2-1-3.2c0.6-1.1,2-1.6,3.2-1l93.6,49
			c0.7,0.4,1.5,0.4,2.2,0l93.6-49c1.2-0.6,2.6-0.2,3.2,1c0.6,1.1,0.2,2.6-1,3.2l-93.6,49C102.2,54.9,101.1,55.2,100,55.2z"/>
	</g>
</g>
</svg>
