<?xml version="1.0" encoding="utf-8"?>
<!-- Generator: Adobe Illustrator 20.1.0, SVG Export Plug-In . SVG Version: 6.00 Build 0)  -->
<svg version="1.1" id="Layer_1" xmlns="http://www.w3.org/2000/svg" xmlns:xlink="http://www.w3.org/1999/xlink" x="0px" y="0px"
	 viewBox="0 0 200 108.8" style="enable-background:new 0 0 200 108.8;" xml:space="preserve">
<style type="text/css">
	.st0{fill:#676767;}
	.st1{fill:#FFFFFF;}
</style>
<g>
	<g id="icn-group">
		<g>
			<path class="st0" d="M72.9,108.8H33.2c-7.4,0-13.4-6-13.4-13.4v-7.7c0.1-7.4,6-13.2,13.3-13.2h1.6c2.1,0,4.2-0.7,5.8-2
				c1-0.8,2.4-0.9,3.5-0.3c5.5,3,12.5,3,18,0c1.1-0.6,2.5-0.5,3.5,0.3c1.7,1.3,3.7,2,5.8,2H73c7.3,0,13.2,5.9,13.3,13.1v7.8
				C86.3,102.8,80.3,108.8,72.9,108.8z M33.1,77.9c-5.4,0-9.8,4.4-9.9,9.7l0,7.8c0,5.5,4.5,10,10,10h39.6c5.5,0,10-4.5,10-10v-7.8
				c0-5.3-4.5-9.7-9.9-9.7h-1.6c-2.8,0-5.5-0.9-7.8-2.6c-6.4,3.4-14.6,3.4-21,0c-2.3,1.7-5,2.6-7.8,2.6H33.1z"/>
		</g>
		<g>
			<path class="st0" d="M23.7,45.1c-0.3,0-0.7,0-1,0c-2.6-0.2-5.1-1.2-7.1-2.8c-0.7-0.6-1.4-1.2-2-2c-0.5-0.6-0.9-1.2-1.3-1.8
				c-1.3-2.3-1.9-4.9-1.7-7.5c0.6-7.2,6.9-12.7,14.1-12.1c7.2,0.6,12.7,6.9,12.1,14.1l0,0c-0.2,2.6-1.2,5.1-2.8,7.2
				c-0.5,0.6-1,1.1-1.5,1.6c-0.7,0.6-1.5,1.2-2.3,1.6C28.1,44.5,25.9,45.1,23.7,45.1z M23.6,22.2c-5.1,0-9.3,3.9-9.7,9
				c-0.2,2,0.3,3.9,1.3,5.6c0.3,0.5,0.6,1,1,1.4c0.4,0.5,0.9,1,1.5,1.5c1.5,1.2,3.4,1.9,5.3,2.1c1.9,0.2,3.9-0.3,5.6-1.2
				c0.6-0.3,1.2-0.8,1.7-1.2c0.4-0.4,0.8-0.8,1.2-1.2c1.2-1.5,2-3.4,2.1-5.3c0.4-5.4-3.6-10.1-9-10.5C24.1,22.2,23.9,22.2,23.6,22.2
				z"/>
		</g>
		<g>
			<path class="st0" d="M53.1,71.1c-3.3,0-6.5-0.9-9.4-2.5c-0.4-0.2-0.8-0.5-1.1-0.7c-0.1-0.1-0.3-0.2-0.5-0.3
				c-0.5-0.4-1-0.8-1.5-1.2c-0.1-0.1-0.3-0.2-0.4-0.4c-0.6-0.6-1.2-1.2-1.8-1.9c-2.7-3.4-4.2-7.6-4.2-11.9c0-2.2,0.4-4.4,1.1-6.5
				c0.2-0.6,0.5-1.2,0.7-1.7c0.3-0.6,0.6-1.1,0.9-1.7c3.5-5.6,9.5-9,16.1-9c6.6,0,12.6,3.4,16.1,9c0.3,0.5,0.6,1.1,0.9,1.7
				c0.3,0.6,0.5,1.1,0.7,1.7c0.8,2.1,1.1,4.2,1.1,6.5c0,4.3-1.5,8.6-4.2,11.9c-0.5,0.7-1.1,1.3-1.8,1.9l-0.4,0.4
				c-0.5,0.4-1,0.8-1.5,1.2c-0.1,0.1-0.3,0.2-0.4,0.3c-0.4,0.3-0.8,0.5-1.1,0.7C59.6,70.2,56.4,71.1,53.1,71.1z M53.1,36.7
				c-5.4,0-10.4,2.8-13.2,7.4c-0.3,0.4-0.5,0.9-0.7,1.4c-0.2,0.5-0.4,0.9-0.6,1.4c-0.6,1.7-0.9,3.5-0.9,5.3c0,3.6,1.2,7,3.5,9.8
				c0.4,0.5,0.9,1.1,1.4,1.6l0.3,0.3c0.4,0.4,0.8,0.7,1.2,1c0.1,0.1,0.2,0.2,0.4,0.2c0.3,0.2,0.6,0.4,0.9,0.6
				c4.7,2.7,10.7,2.7,15.4,0c0.3-0.2,0.6-0.4,0.9-0.6l0.4-0.3c0.4-0.3,0.9-0.6,1.2-1l0.4-0.3c0.5-0.5,1-1,1.4-1.5
				c2.2-2.8,3.5-6.2,3.5-9.8c0-1.8-0.3-3.6-0.9-5.3c-0.2-0.5-0.4-1-0.6-1.4c-0.2-0.5-0.5-0.9-0.7-1.4C63.5,39.5,58.5,36.7,53.1,36.7
				z"/>
		</g>
		<g>
			<g>
				<path class="st0" d="M30.1,70.3c-0.2,0-0.5,0-0.7,0L8.8,68.7c-5.2-0.4-9.1-5-8.7-10.2l0.4-5.1c0.4-5.2,3.6-9.6,8.4-11.5
					c1.2-0.5,2.5-0.2,3.4,0.7c2.3,2.4,5.3,3.9,8.6,4.1c1.9,0.1,3.8-0.1,5.6-0.8c1-0.4,2.2-0.2,3,0.5c0.8,0.7,1.2,1.8,1,2.9
					c-0.1,0.7-0.2,1.4-0.3,2c-0.3,3.6,0.5,7.3,2.2,10.5c0.3,0.5,0.6,1,0.9,1.5c0.4,0.5,0.7,1.1,1.2,1.5c0.7,0.8,0.9,1.9,0.6,2.8
					c-0.3,1-1,1.7-2,2C32.2,70.1,31.2,70.3,30.1,70.3z M9.9,45c-3.5,1.5-5.8,4.8-6.1,8.6l-0.4,5.1c-0.3,3.4,2.3,6.3,5.6,6.6
					l20.6,1.6c0.7,0.1,1.3,0,2-0.2c-0.4-0.5-0.7-1-1.1-1.5c-0.4-0.6-0.7-1.2-1.1-1.8c-2.1-3.8-3-8-2.6-12.3c0-0.6,0.1-1.2,0.2-1.9
					c-2.1,0.7-4.3,1-6.5,0.8C16.5,49.8,12.7,48,9.9,45z"/>
			</g>
		</g>
	</g>
	<g>
		<g>
			<g>
				<g>
					<path class="st1" d="M137,1.7c-33.4,0-60.6,18.5-60.6,41.1c0,11.8,7.6,23,20.9,30.9c2.7,1.6,4.4,4.4,4.4,7.6
						c0,5.3-0.6,9.5-2,13.3c-0.3,0.7,0.5,1.4,1.2,1c1.9-1.2,3.5-2.4,5.1-3.6c5.1-4,10.9-8.5,22.2-8.4c0.3,0,0.5,0,0.8,0
						c2.5,0.2,5.2,0.4,8,0.4c33.4,0,60.7-18.4,60.7-41.1C197.6,20.1,170.4,1.7,137,1.7z"/>
					<path class="st0" d="M100.4,97.4c-0.6,0-1.1-0.2-1.6-0.6C98,96.1,97.7,95,98.1,94c1.3-3.6,1.9-7.6,1.9-12.7
						c0-2.5-1.4-4.8-3.6-6.1c-13.8-8.2-21.8-20-21.8-32.4C74.6,19.2,102.6,0,137,0c34.4,0,62.3,19.2,62.3,42.8
						c0,23.6-28,42.8-62.3,42.8c-2.8,0-5.6-0.1-8.1-0.4l-0.7,0c0,0,0,0-0.1,0c-10.6,0-15.9,4.1-21,8.1c-1.6,1.2-3.3,2.5-5.3,3.7
						C101.3,97.3,100.9,97.4,100.4,97.4z M137,3.4C104.5,3.4,78,21.1,78,42.8c0,11.1,7.3,21.9,20.1,29.5c3.2,1.9,5.2,5.4,5.2,9
						c0,4.5-0.4,8.2-1.4,11.6c1-0.7,2-1.5,3-2.2c5.1-3.9,11.3-8.8,23.2-8.8c0,0,0,0,0.1,0l0.9,0c2.5,0.2,5.2,0.4,7.9,0.4
						c32.5,0,59-17.7,59-39.4C195.9,21.1,169.5,3.4,137,3.4z"/>
				</g>
			</g>
			<g>
				<circle class="st1" cx="109.3" cy="43.6" r="8.8"/>
				<path class="st0" d="M109.3,54.1c-5.8,0-10.5-4.7-10.5-10.5c0-5.8,4.7-10.5,10.5-10.5c5.8,0,10.5,4.7,10.5,10.5
					C119.8,49.4,115.1,54.1,109.3,54.1z M109.3,36.5c-3.9,0-7.1,3.2-7.1,7.1s3.2,7.1,7.1,7.1s7.1-3.2,7.1-7.1S113.2,36.5,109.3,36.5
					z"/>
			</g>
			<g>
				<circle class="st1" cx="137.2" cy="43.6" r="8.8"/>
				<path class="st0" d="M137.2,54.1c-5.8,0-10.5-4.7-10.5-10.5c0-5.8,4.7-10.5,10.5-10.5c5.8,0,10.5,4.7,10.5,10.5
					C147.7,49.4,143,54.1,137.2,54.1z M137.2,36.5c-3.9,0-7.1,3.2-7.1,7.1s3.2,7.1,7.1,7.1c3.9,0,7.1-3.2,7.1-7.1
					S141.1,36.5,137.2,36.5z"/>
			</g>
			<g>
				<circle class="st1" cx="166.3" cy="43.6" r="8.8"/>
				<path class="st0" d="M166.3,54.1c-5.8,0-10.5-4.7-10.5-10.5c0-5.8,4.7-10.5,10.5-10.5c5.8,0,10.5,4.7,10.5,10.5
					C176.8,49.4,172.1,54.1,166.3,54.1z M166.3,36.5c-3.9,0-7.1,3.2-7.1,7.1s3.2,7.1,7.1,7.1c3.9,0,7.1-3.2,7.1-7.1
					S170.2,36.5,166.3,36.5z"/>
			</g>
		</g>
	</g>
</g>
</svg>
