<?xml version="1.0" encoding="utf-8"?>
<!-- Generator: Adobe Illustrator 16.0.0, SVG Export Plug-In . SVG Version: 6.00 Build 0)  -->
<!DOCTYPE svg PUBLIC "-//W3C//DTD SVG 1.1//EN" "http://www.w3.org/Graphics/SVG/1.1/DTD/svg11.dtd">
<svg version="1.1" id="Layer_1" xmlns="http://www.w3.org/2000/svg" xmlns:xlink="http://www.w3.org/1999/xlink" x="0px" y="0px"
	 width="62px" height="48px" viewBox="0 0 62 48" enable-background="new 0 0 62 48" xml:space="preserve">
<g transform="matrix(1 0 0 1 -52 -402 )">
	<path d="M109.242,445.312c0.22-0.216,0.329-0.472-0.242-0.768v-26.181c-0.166,0.818-0.963,1.568-1.816,2.25
		c-6.182,4.682-11.094,8.523-14.738,11.523c-1.176,0.977-2.134,1.738-2.871,2.283c-0.738,0.546-1.736,1.098-2.993,1.654
		s-2.439,0.835-3.546,0.835H83h-0.035c-1.107,0-2.289-0.278-3.546-0.835c-1.257-0.557-2.254-1.108-2.993-1.654
		c-0.738-0.545-1.695-1.307-2.872-2.283c-3.645-3-8.557-6.841-14.739-11.523c-0.854-0.682-1.649-1.432-1.816-2.25v26.181
		c-0.571,0.296-0.462,0.552-0.243,0.768s0.479,0.324,0.778-0.312h50.929C108.764,445.637,109.023,445.528,109.242,445.312z
		 M107.963,413.199c1.072-1.647,1.608-3.142,1.608-4.483v-0.375v-0.46c0,0-0.006-0.148-0.017-0.443
		c-0.012-0.295-0.047-0.438-0.104-0.426s-0.121-0.091-0.19-0.307c-0.068-0.216-0.173-0.301-0.311-0.256
		c-0.139,0.045-0.301,0.017-0.484,0.551H57.536c-0.3-0.636-0.559-0.528-0.778-0.312s-0.329,0.472-0.329,0.767
		c0,3.818,1.695,7.045,5.086,9.682c4.452,3.455,9.076,7.057,13.874,10.807c0.139,0.113,0.542,0.449,1.211,1.006
		c0.669,0.557,1.2,0.982,1.592,1.278c0.392,0.295,0.905,0.653,1.54,1.073c0.634,0.421,1.217,0.733,1.747,0.938
		c0.531,0.205,1.026,0.307,1.488,0.307H83h0.035c0.461,0,0.958-0.102,1.488-0.307c0.53-0.204,1.112-0.517,1.747-0.938
		c0.635-0.42,1.147-0.778,1.539-1.073c0.393-0.296,0.924-0.722,1.592-1.278c0.669-0.557,1.072-0.893,1.211-1.006
		c4.798-3.75,9.422-7.353,13.874-10.807C105.73,416.159,106.891,414.847,107.963,413.199z M112.374,403.603
		c1.084,1.068,1.626,2.352,1.626,3.852v37.09c0,1.5-0.542,2.785-1.626,3.853c-1.084,1.068-2.388,1.603-3.909,1.603H57.536
		c-1.522,0-2.826-0.534-3.91-1.603C52.542,447.33,52,446.045,52,444.545v-37.09c0-1.5,0.542-2.784,1.626-3.852
		c1.084-1.068,2.387-1.603,3.91-1.603h50.929C109.986,402,111.29,402.534,112.374,403.603z"/>
</g>
<g transform="matrix(1 0 0 1 -76 -410 )">
	<path d="M103.889,421.091v2.182h6.223v-2.182c0-0.803-0.305-1.488-0.912-2.057s-1.34-0.853-2.199-0.853
		c-0.859,0-1.592,0.284-2.2,0.853C104.193,419.603,103.889,420.288,103.889,421.091z M113.66,423.591
		c0.227,0.212,0.34,0.47,0.34,0.773v6.545c0,0.303-0.113,0.561-0.34,0.772c-0.227,0.213-0.503,0.318-0.826,0.318h-11.667
		c-0.324,0-0.6-0.105-0.826-0.318c-0.227-0.212-0.34-0.47-0.34-0.772v-6.545c0-0.303,0.113-0.561,0.34-0.773
		c0.227-0.212,0.502-0.318,0.826-0.318h0.389v-2.182c0-1.394,0.535-2.591,1.604-3.591s2.35-1.5,3.84-1.5c1.49,0,2.771,0.5,3.84,1.5
		c1.07,1,1.604,2.197,1.604,3.591v2.182h0.39C113.157,423.272,113.434,423.379,113.66,423.591z"/>
</g>
</svg>
