<?xml version="1.0" encoding="utf-8"?>
<!-- Generator: Adobe Illustrator 20.1.0, SVG Export Plug-In . SVG Version: 6.00 Build 0)  -->
<svg version="1.1" id="Layer_1" xmlns="http://www.w3.org/2000/svg" xmlns:xlink="http://www.w3.org/1999/xlink" x="0px" y="0px"
	 viewBox="0 0 200 200" style="enable-background:new 0 0 200 200;" xml:space="preserve">
<style type="text/css">
	.st0{fill:#1C7279;}
	.st1{fill:#FFFFFF;}
</style>
<title>icn-google</title>
<g>
	<g id="Layer_2">
		<g id="Layer_1-2">
			<path id="sm-google-round" class="st0" d="M100,0C44.8,0,0,44.8,0,100s44.8,100,100,100s100-44.8,100-100S155.2,0,100,0z"/>
		</g>
	</g>
	<g>
		<path class="st1" d="M135.9,71.9c0,7.6-2,14.7-6,21.3c-4,6.6-10.5,13.6-19.5,21.1l-13.9,11.4h41.2l3.2,21.4H59v-18.4l35.2-30.9
			c6.5-5.7,10.9-10.5,13.2-14.1c2.3-3.7,3.5-7.3,3.7-10.8c0-3.4-1.3-6.2-3.9-8.5c-2.6-2.3-6.2-3.5-10.9-3.5c-4.5,0-9.5,1.6-15.1,4.7
			c-5.6,3.1-9,5.1-10.4,6L59,53c3.7-3,8.8-6.2,15.3-9.5c6.4-3.3,14-5,22.8-5c14.6,0,24.7,3.5,30.4,10.5
			C133.1,56.1,135.9,63.7,135.9,71.9z"/>
	</g>
</g>
</svg>
