<?xml version="1.0" encoding="utf-8"?>
<!-- Generator: Adobe Illustrator 20.1.0, SVG Export Plug-In . SVG Version: 6.00 Build 0)  -->
<svg version="1.1" id="Layer_1" xmlns="http://www.w3.org/2000/svg" xmlns:xlink="http://www.w3.org/1999/xlink" x="0px" y="0px"
	 viewBox="0 0 200 200" style="enable-background:new 0 0 200 200;" xml:space="preserve">
<style type="text/css">
	.st0{fill:#1C7279;}
	.st1{fill:#FFFFFF;}
</style>
<title>icn-google</title>
<g>
	<g id="Layer_2">
		<g id="Layer_1-2">
			<path id="sm-google-round" class="st0" d="M100,0C44.8,0,0,44.8,0,100s44.8,100,100,100s100-44.8,100-100S155.2,0,100,0z"/>
		</g>
	</g>
	<g>
		<path class="st1" d="M142.4,71.4c0,5.4-1.6,10.4-4.8,15.1s-6.5,7.8-10,9.5c3.9,1.5,7.7,4.9,11.3,10.1c3.7,5.2,5.5,11.4,5.5,18.4
			c0,10.5-4.2,19.3-12.5,26.4c-8.3,7.1-19.5,10.7-33.6,10.7c-6.9,0-14.1-1.2-21.7-3.7c-7.6-2.5-14.5-5.5-20.6-9l14.2-18.4
			c5.1,3.1,9.9,5.4,14.2,6.7c4.4,1.4,9.1,2.1,14.2,2.1c5,0,9.5-1.3,13.4-4c3.9-2.7,5.9-6.3,5.9-11c0-5-1.9-9-5.7-11.9
			c-3.8-2.9-9.7-4.4-17.5-4.4H83.2L80,86.4h13.5c6.9,0,12.3-1.2,16.3-3.7c4-2.5,6-5.8,6-9.9c0-3.2-1.4-6-4.3-8.3
			c-2.9-2.3-6.9-3.5-12.2-3.5c-4.9,0-9.6,1-14.1,2.9c-4.6,1.9-8.7,4.2-12.5,6.7L59.6,51.9c6.2-4.4,12.8-7.7,19.8-9.9
			c6.9-2.2,14.1-3.4,21.5-3.4c13.4,0,23.6,3.2,30.8,9.6C138.8,54.5,142.4,62.3,142.4,71.4z"/>
	</g>
</g>
</svg>
