<?xml version="1.0" encoding="utf-8"?>
<!-- Generator: Adobe Illustrator 16.0.0, SVG Export Plug-In . SVG Version: 6.00 Build 0)  -->
<!DOCTYPE svg PUBLIC "-//W3C//DTD SVG 1.1//EN" "http://www.w3.org/Graphics/SVG/1.1/DTD/svg11.dtd">
<svg version="1.1" id="Layer_1" xmlns="http://www.w3.org/2000/svg" xmlns:xlink="http://www.w3.org/1999/xlink" x="0px" y="0px"
	 width="62px" height="62px" viewBox="0 0 62 62" enable-background="new 0 0 62 62" xml:space="preserve">
<g transform="matrix(1 0 0 1 -52 -253 )">
	<path fill="#FFFFFF" d="M102.271,284.156c0.3,0.035,0.542,0.179,0.727,0.432l1.35,1.765c0.184,0.254,0.259,0.524,0.225,0.813
		c-0.035,0.288-0.168,0.524-0.398,0.709c-0.992,0.784-2.45,1.92-4.377,3.408c-1.926,1.487-3.615,2.791-5.068,3.909
		s-2.226,1.713-2.318,1.782c-0.898,0.738-1.591,1.291-2.075,1.66s-1.183,0.842-2.093,1.419c-0.912,0.577-1.794,0.997-2.647,1.263
		s-1.706,0.398-2.56,0.398H83h-0.035c-0.854,0-1.707-0.133-2.56-0.398s-1.73-0.686-2.629-1.263c-0.9-0.577-1.603-1.056-2.111-1.437
		c-0.507-0.38-1.199-0.928-2.076-1.643c-0.115-0.093-0.865-0.675-2.249-1.748c-1.384-1.072-3.039-2.352-4.965-3.84
		c-1.926-1.488-3.339-2.578-4.238-3.27c-0.253-0.185-0.398-0.421-0.433-0.709c-0.034-0.289,0.041-0.56,0.225-0.813l1.28-1.799
		c0.185-0.254,0.432-0.404,0.744-0.45c0.312-0.046,0.594,0.034,0.848,0.242c2.168,1.684,5.697,4.406,10.587,8.166
		c0.116,0.092,0.617,0.495,1.505,1.211c0.888,0.715,1.585,1.251,2.093,1.608c0.507,0.357,1.159,0.732,1.955,1.124
		c0.796,0.393,1.47,0.588,2.024,0.588H83h0.035c0.553,0,1.228-0.195,2.024-0.588c0.796-0.392,1.447-0.767,1.955-1.124
		s1.205-0.894,2.093-1.608c0.888-0.716,1.39-1.119,1.505-1.211c5.951-4.567,9.561-7.358,10.83-8.374
		C101.694,284.196,101.971,284.121,102.271,284.156z M109.242,310.242c0.22-0.219,0.329-0.479-0.242-0.777v-32.108
		c-1.504-1.914-3.338-3.517-4.93-4.809c-2.1-1.707-6.585-5.213-13.459-10.518c-0.068-0.046-0.564-0.45-1.487-1.211
		s-1.626-1.315-2.11-1.661c-0.484-0.346-1.131-0.721-1.938-1.125c-0.808-0.404-1.488-0.605-2.042-0.605H83h-0.035
		c-0.554,0-1.234,0.202-2.041,0.605c-0.808,0.403-1.453,0.778-1.938,1.125c-0.484,0.346-1.188,0.899-2.111,1.661
		c-0.922,0.761-1.418,1.165-1.488,1.211c-4.959,3.829-8.598,6.66-10.916,8.494c-2.318,1.834-3.812,3.033-4.48,3.598
		c-0.669,0.565-1.615,1.424-2.837,2.578c-0.323,0.277-0.565,0.496-0.155,0.657v32.108c-0.571,0.299-0.462,0.559-0.243,0.777
		c0.219,0.22,0.479,0.329,0.778-0.242h50.929C108.764,310.571,109.023,310.462,109.242,310.242z M112.582,274.105
		c0.945,0.876,1.418,1.96,1.418,3.252v32.108c0,1.521-0.542,2.825-1.626,3.909S109.986,315,108.465,315H57.536
		c-1.522,0-2.826-0.542-3.91-1.626S52,310.986,52,309.465v-32.108c0-1.292,0.473-2.375,1.418-3.252
		c2.837-2.629,6.874-5.98,12.109-10.051c5.236-4.071,7.923-6.165,8.062-6.28c0.83-0.692,1.511-1.24,2.041-1.643
		c0.531-0.404,1.24-0.888,2.128-1.453c0.888-0.565,1.765-0.986,2.629-1.263c0.865-0.277,1.724-0.415,2.578-0.415H83h0.035
		c0.854,0,1.712,0.138,2.578,0.415c0.864,0.277,1.741,0.698,2.63,1.263c0.888,0.565,1.597,1.049,2.127,1.453
		c0.531,0.403,1.211,0.951,2.041,1.643c0.992,0.831,2.791,2.237,5.398,4.221c2.605,1.983,5.213,4.025,7.818,6.124
		C108.233,270.218,110.552,272.213,112.582,274.105z"/>
</g>
<g transform="matrix(1 0 0 1 -76 -267 )">
	<path fill="#FFFFFF" d="M104.167,290h9.583c0.348,0,0.643,0.122,0.885,0.365c0.244,0.243,0.365,0.538,0.365,0.885v7.5
		c0,0.348-0.121,0.643-0.365,0.885c-0.242,0.244-0.537,0.365-0.885,0.365h-12.5c-0.347,0-0.643-0.121-0.885-0.365
		c-0.243-0.242-0.365-0.537-0.365-0.885v-7.5c0-0.348,0.122-0.643,0.365-0.885c0.243-0.243,0.538-0.365,0.885-0.365h0.417v-4.167
		c0-1.606,0.571-2.98,1.712-4.121c1.142-1.142,2.515-1.712,4.121-1.712c1.605,0,2.979,0.571,4.121,1.712
		c1.142,1.141,1.713,2.515,1.713,4.121c0,0.226-0.083,0.421-0.248,0.586c-0.165,0.165-0.36,0.247-0.586,0.247h-0.834
		c-0.225,0-0.42-0.083-0.586-0.247c-0.164-0.165-0.246-0.36-0.246-0.586c0-0.92-0.326-1.706-0.977-2.357
		c-0.652-0.651-1.438-0.977-2.357-0.977s-1.706,0.326-2.357,0.977c-0.651,0.651-0.977,1.437-0.977,2.357V290z"/>
</g>
</svg>
